<svg width="255" height="97" viewBox="0 0 255 97" fill="none" xmlns="http://www.w3.org/2000/svg">
<path d="M16.8 36.24V10.56H22.38L29.46 28.8C29.66 29.32 29.8 29.84 29.88 30.36C29.96 30.88 30.02 31.4 30.06 31.92H29.76C29.88 31.4 29.98 30.88 30.06 30.36C30.14 29.84 30.28 29.32 30.48 28.8L37.68 10.56H43.2V36.24H39.06V20.94C39.06 19.18 39.06 17.72 39.06 16.56C39.06 15.36 39.08 14.46 39.12 13.86L39.78 13.08L31.5 36.24H28.2L19.56 13.08L20.16 13.62C20.36 14.62 20.5 15.74 20.58 16.98C20.66 18.18 20.7 19.48 20.7 20.88V36.24H16.8ZM6.72 46.86V0.299996H53.28V46.86H6.72ZM10.02 43.56H49.98V3.6H10.02V43.56ZM78.06 36.3L88.44 10.56H91.86L102.12 36.3H98.04L94.92 28.5H85.2L82.14 36.3H78.06ZM86.52 25.26H93.78L91.08 17.94C90.96 17.54 90.84 17.14 90.72 16.74C90.6 16.34 90.5 15.94 90.42 15.54C90.34 15.14 90.28 14.74 90.24 14.34H90C90 14.7 89.96 15.08 89.88 15.48C89.84 15.84 89.76 16.24 89.64 16.68C89.56 17.08 89.42 17.5 89.22 17.94L86.52 25.26ZM66.72 46.86V0.299996H113.28V46.86H66.72ZM70.02 43.56H109.98V3.6H70.02V43.56ZM139.2 36.24L147.84 22.98L139.74 10.56H144.24L150.12 19.92L156.06 10.56H160.38L152.34 22.92L160.98 36.24H156.42L150 25.92L143.52 36.24H139.2ZM126.72 46.86V0.299996H173.28V46.86H126.72ZM130.02 43.56H169.98V3.6H130.02V43.56Z" fill="white"/>
<path d="M23.22 86.3V60.56H39.06V63.86H27.36V71.96H37.92V75.14H27.36V86.3H23.22ZM6.72 96.86V50.3H53.28V96.86H6.72ZM10.02 93.56H49.98V53.6H10.02V93.56ZM84.72 86.24V83.78L87.9 83.12V63.74L84.72 62.96V60.56H95.34V62.96L92.1 63.74V83.12L95.34 83.78V86.24H84.72ZM66.72 96.86V50.3H113.28V96.86H66.72ZM70.02 93.56H109.98V53.6H70.02V93.56ZM144.12 86.24V60.56H148.26V82.82H159.42V86.24H144.12ZM126.72 96.86V50.3H173.28V96.86H126.72ZM130.02 93.56H169.98V53.6H130.02V93.56ZM196.8 86.24V60.56H202.38L209.46 78.8C209.66 79.32 209.8 79.84 209.88 80.36C209.96 80.88 210.02 81.4 210.06 81.92H209.76C209.88 81.4 209.98 80.88 210.06 80.36C210.14 79.84 210.28 79.32 210.48 78.8L217.68 60.56H223.2V86.24H219.06V70.94C219.06 69.18 219.06 67.72 219.06 66.56C219.06 65.36 219.08 64.46 219.12 63.86L219.78 63.08L211.5 86.24H208.2L199.56 63.08L200.16 63.62C200.36 64.62 200.5 65.74 200.58 66.98C200.66 68.18 200.7 69.48 200.7 70.88V86.24H196.8ZM186.72 96.86V50.3H233.28V96.86H186.72ZM190.02 93.56H229.98V53.6H190.02V93.56Z" fill="white"/>
</svg>
